HIERARCHY
ROOT pelvis
{
  OFFSET 0 100 0
  CHANNELS 6 Xposition Yposition Zposition Zrotation Xrotation Yrotation
  JOINT pelvis_right_femur
  {
    OFFSET -10.78128 -3.44521 -0.5502486
    CHANNELS 3 Zrotation Xrotation Yrotation
    JOINT right_femur_tibia
    {
      OFFSET -0.8047443 -44.0398 -0.1307829
      CHANNELS 3 Zrotation Xrotation Yrotation
      JOINT right_tibia_foot
      {
        OFFSET 3.006224 -47.83518 -5
        CHANNELS 3 Zrotation Xrotation Yrotation
        End Site
        {
          OFFSET 0 -5 15
        }
      }
    }
  }
  JOINT pelvis_left_femur
  {
    OFFSET 10.78128 -3.44521 -0.5502486
    CHANNELS 3 Zrotation Xrotation Yrotation
    JOINT left_femur_tibia
    {
      OFFSET 0.8047443 -44.0398 -0.1307829
      CHANNELS 3 Zrotation Xrotation Yrotation
      JOINT left_tibia_foot
      {
        OFFSET -4.370144 -48.10324 -4.275266
        CHANNELS 3 Zrotation Xrotation Yrotation
        End Site
        {
          OFFSET 0 -5 15
        }
      }
    }
  }
  JOINT pelvis_spine1
  {
    OFFSET 0 6.468898 -3.129235
    CHANNELS 3 Zrotation Xrotation Yrotation
    JOINT spine1
    {
      OFFSET 0 23.15396 4.99043
      CHANNELS 3 Zrotation Xrotation Yrotation
      JOINT spine2
      {
        OFFSET 0 20.79997 -5.064912
        CHANNELS 3 Zrotation Xrotation Yrotation
        JOINT neck
        {
          OFFSET 0 14.38658 9.616178
          CHANNELS 3 Zrotation Xrotation Yrotation
          End Site
          {
            OFFSET 0 20 0
          }
        }
      }
      JOINT right_manubrium
      {
        OFFSET -5.722621 16.35077 3.967754
        CHANNELS 3 Zrotation Xrotation Yrotation
        JOINT right_clavicle
        {
          OFFSET -13.16364 1.694482 -4.693211
          CHANNELS 3 Zrotation Xrotation Yrotation
          JOINT right_humerus
          {
            OFFSET -28.5034 -0.3100689 -2.792744
            CHANNELS 3 Zrotation Xrotation Yrotation
            JOINT right_radius
            {
              OFFSET -25.15693 0.02248979 -1.271978
              CHANNELS 3 Zrotation Xrotation Yrotation
              End Site
              {
                OFFSET -15 0 0
              }
            }
          }
        }
      }
      JOINT left_manubrium
      {
        OFFSET 5.722621 16.35077 3.967754
        CHANNELS 3 Zrotation Xrotation Yrotation
        JOINT left_clavicle
        {
          OFFSET 13.16364 1.694482 -4.693211
          CHANNELS 3 Zrotation Xrotation Yrotation
          JOINT left_humerus
          {
            OFFSET 29.39168 -1.063119 -2.237045
            CHANNELS 3 Zrotation Xrotation Yrotation
            JOINT left_radius
            {
              OFFSET 24.59957 -0.9528479 0.9047498
              CHANNELS 3 Zrotation Xrotation Yrotation
              End Site
              {
                OFFSET 15 -0 -0
              }
            }
          }
        }
      }
    }
  }
}
MOTION
Frames: 11
Frame Time: 0.0416666666667
-1471.133 108.4234 1775.056 -13.51553 6.341047 -114.0179 7.963851 4.965434 -5.195095 -0 11.21194 -0 -15.58517 -1.404957 -1.98939 0.2430496 -4.613758 -5.174616 -0 49.12512 -0 3.320751 -4.788103 18.45252 2.355374 -2.003496 10.907 3.228491 14.53033 -9.532378 -0.4790159 19.51723 1.990219 1.418796 -20.0845 1.56679 -6.631865 -30.85582 12.02241 93.36764 18.1398 -17.92235 -0 0 25.59809 -14.85492 9.262252 3.122471 1.537701 -26.45196 -7.686665 -94.86032 10.06233 36.40318 0 0 -11.52484 7.708892 9.955603 0.5572865
-1475.809 108.6162 1772.951 -13.19696 6.502612 -115.0162 7.906481 8.586822 -4.222645 -0 10.91453 -0 -15.12573 -3.861753 -2.487442 1.489383 -8.753345 -4.83376 -0 42.64499 -0 3.340513 -4.001881 18.76944 2.125266 -2.090109 10.89843 3.182764 14.24005 -9.130204 -0.6135884 19.21149 2.245868 1.501929 -20.08189 1.687411 -5.879226 -31.49773 12.02914 91.98601 18.26068 -16.35683 -0 0 26.7625 -15.01248 9.742075 4.198286 1.352891 -25.81219 -7.507437 -95.69362 9.972842 38.26267 0 0 -9.679502 7.176823 9.667176 1.696077
-1480.499 108.3807 1770.963 -12.50727 6.636713 -115.9198 7.870559 11.30311 -3.387589 -0 11.14263 -0 -14.4663 -6.533868 -2.775488 2.73296 -11.95066 -4.360542 -0 34.02203 -0 3.411073 -3.319855 18.80491 1.853947 -2.18882 10.8165 3.099411 13.93796 -8.718376 -0.7415885 18.94933 2.532872 1.627321 -20.00336 1.81544 -5.050874 -31.99366 12.06951 90.60073 18.45954 -14.83886 -0 0 27.75084 -15.28142 10.1732 5.283817 1.258719 -25.21972 -7.364311 -96.34371 9.824153 39.7514 0 0 -8.095246 6.77532 9.47765 2.610413
-1485.341 107.8211 1769.081 -11.50003 6.746441 -116.7381 7.799716 13.13761 -2.562308 -0 12.16924 -0 -13.57841 -9.186572 -2.884042 3.782754 -14.0185 -3.908062 -0 24.97617 -0 3.356787 -2.542796 18.47617 1.55889 -2.279044 10.66629 2.964903 13.66214 -8.309052 -0.8512738 18.76622 2.832164 1.806284 -19.81838 1.930686 -4.181 -32.28467 12.14533 89.30142 18.75855 -13.46428 -0 0 28.48431 -15.66229 10.50731 6.306684 1.255029 -24.71077 -7.289014 -96.77333 9.616996 40.78592 0 0 -6.776451 6.553478 9.418941 3.228846
-1490.453 107.1127 1767.278 -10.31806 6.761413 -117.4959 7.525722 14.36248 -1.718121 -0 13.91648 -0 -12.53884 -11.47838 -2.816254 4.369119 -15.03069 -3.729065 -0 17.2054 -0 3.031456 -1.688027 17.88676 1.257953 -2.342179 10.46336 2.773628 13.44189 -7.914683 -0.9372058 18.68413 3.128295 2.048226 -19.50788 2.012074 -3.30416 -32.33786 12.2516 88.15638 19.1758 -12.31006 -0 0 28.9196 -16.13338 10.70587 7.198342 1.334865 -24.31351 -7.301494 -96.97647 9.351688 41.34281 0 0 -5.699592 6.541495 9.497685 3.515855
-1495.901 106.4341 1765.506 -9.202698 6.610866 -118.2157 6.882106 15.45111 -1.000056 -0 16.08671 -0 -11.58164 -13.05839 -2.539844 4.265203 -15.27638 -4.110977 -0 11.86635 -0 2.318072 -1.00538 17.35835 0.964306 -2.367202 10.22918 2.529398 13.29285 -7.547215 -1.000877 18.70737 3.412011 2.359671 -19.06568 2.040777 -2.446045 -32.14925 12.37904 87.20042 19.72078 -11.42501 -0 0 29.05315 -16.65543 10.74878 7.903359 1.489341 -24.04623 -7.407724 -96.97208 9.027654 41.44715 0 0 -4.836981 6.748459 9.693695 3.470275
-1501.687 105.9155 1763.701 -8.435862 6.285331 -118.9079 5.789823 16.90991 -0.6583902 -0 18.39952 -0 -11.02939 -13.62772 -1.994772 3.386673 -15.12248 -5.285084 -0 9.295751 -0 1.14707 -0.8478758 17.29975 0.684978 -2.353324 9.986328 2.244149 13.21915 -7.217883 -1.048233 18.82397 3.678547 2.742273 -18.49732 2.002448 -1.620463 -31.74048 12.51738 86.43676 20.38964 -10.8296 -0 0 28.9164 -17.18136 10.63926 8.384724 1.710359 -23.91789 -7.601592 -96.79427 8.64559 41.15374 0 0 -4.173013 7.162998 9.967179 3.118278
-1507.749 105.6276 1761.796 -8.235713 5.844488 -119.5595 4.291367 19.01149 -0.8702768 -0 20.81658 -0 -11.12838 -12.91602 -1.108144 1.816649 -14.82568 -7.317638 -0 9.103949 -0 -0.4194258 -1.463192 17.9665 0.4238661 -2.308848 9.755246 1.935206 13.21977 -6.938246 -1.085331 19.01123 3.922847 3.189519 -17.81985 1.888956 -0.8357073 -31.15146 12.65753 85.85319 21.16138 -10.5255 -0 0 28.56325 -17.66636 10.40317 8.623406 1.990375 -23.93076 -7.868437 -96.48267 8.211301 40.52776 0 0 -3.711368 7.755868 10.27152 2.503953
-1513.984 105.6071 1759.742 -8.66526 5.384935 -120.1222 2.545878 21.55976 -1.599087 -0 23.635 -0 -11.91561 -10.67009 0.1700478 -0.216209 -14.39938 -10.01373 -0 10.50912 -0 -2.114748 -2.825543 19.2874 0.1873429 -2.247002 9.552748 1.622953 13.29428 -6.722094 -1.114253 19.24273 4.134612 3.682891 -17.06423 1.700295 -0.1076986 -30.4324 12.79213 85.44488 21.99527 -10.51016 -0 0 28.05372 -18.07402 10.08234 8.61331 2.319866 -24.08319 -8.187844 -96.075 7.739914 39.63006 0 0 -3.476272 8.483205 10.56615 1.680586
-1520.274 105.885 1757.529 -9.599743 5.004366 -120.5148 0.7921223 23.84148 -2.602693 -0 27.36508 -0 -13.2189 -6.785543 1.802344 -2.364761 -13.62226 -12.8995 -0 12.65509 -0 -3.529407 -4.610405 20.89065 -0.01029192 -2.18081 9.392127 1.330612 13.44369 -6.587442 -1.131096 19.49339 4.295639 4.18785 -16.2815 1.447392 0.5252145 -29.63957 12.91453 85.23395 22.82848 -10.78838 -0 0 27.44033 -18.37685 9.724914 8.355765 2.683439 -24.37034 -8.533862 -95.60308 7.260136 38.51213 0 0 -3.511539 9.287654 10.82439 0.7067046
-1526.499 106.4906 1755.196 -10.76582 4.780231 -120.653 -0.7045313 24.85161 -3.575388 -0 32.36997 -0 -14.75915 -1.567973 3.600073 -4.2211 -12.18535 -15.35312 -0 14.78281 -0 -4.30688 -6.355508 22.29342 -0.144273 -2.118974 9.283956 1.085797 13.66545 -6.557122 -1.126983 19.7412 4.381112 4.651344 -15.54904 1.155183 0.9926875 -28.8357 13.01775 85.27623 23.57482 -11.37369 -0 0 26.76181 -18.55317 9.375265 7.858065 3.056293 -24.78152 -8.873309 -95.09185 6.817025 37.22172 0 0 -3.877212 10.09733 11.03464 -0.3522768
